<?xml version="1.0" encoding="UTF-8"?>
<!-- Created with Inkscape (http://www.inkscape.org/) -->
<svg width="210mm" height="297mm" version="1.1" viewBox="0 0 210 297" xmlns="http://www.w3.org/2000/svg">
 <g stroke-width="1.0016">
  <g fill-rule="evenodd">
   <!-- d="m111.01 55.32 44.176-8.4461v38.259l-44.176 0.8448z" -->
   <polygon  points="155.19071,46.873836 155.19071,85.132365 111.01455,85.977162 111.01455,55.319908 " fill="#e9e9ff" fill-opacity="0.7"/>
   <polygon  points="70.505117,85.435571 111.01455,85.977162 111.01455,55.319908 70.505117,49.905214 " fill="#353564" fill-opacity="0.7"/>
   <polygon  points="111.68566,38.095208 155.19071,46.873836 111.01455,55.319908 70.505117,49.905214 " fill="#4d4d9f" fill-opacity="0.7"/>
   <polygon  points="111.68566,84.254304 155.19071,85.132365 111.01455,85.977162 70.505117,85.435571 " fill="#afafde" fill-opacity="0.7"/>
   <polygon  points="111.68566,84.254304 155.19071,85.132365 155.19071,46.873836 111.68566,38.095208 " fill="#d7d7ff" fill-opacity="0.7"/>
   <polygon  points="111.68566,38.095208 111.68566,84.254304 70.505117,85.435571 70.505117,49.905214 " fill="#8686bf" fill-opacity="0.7"/>
   <polygon  points="154.7477,121.38423 154.7477,157.2244 110.42512,142.84603 110.42512,113.96166 " fill="#e9e9ff" fill-opacity="0.7"/>
   <polygon  points="69.328529,152.70174 110.42512,142.84603 110.42512,113.96166 69.328529,119.04948 " fill="#353564" fill-opacity="0.7"/>
   <polygon  points="111.09736,173.02663 154.7477,157.2244 110.42512,142.84603 69.328529,152.70174 " fill="#afafde" fill-opacity="0.7"/>
   <polygon  points="111.09736,129.54183 154.7477,121.38423 110.42512,113.96166 69.328529,119.04948 " fill="#4d4d9f" fill-opacity="0.7"/>
   <polygon  points="111.09736,173.02663 154.7477,157.2244 154.7477,121.38423 111.09736,129.54183 " fill="#d7d7ff" fill-opacity="0.7"/>
   <polygon  points="111.09736,129.54183 111.09736,173.02663 69.328529,152.70174 69.328529,119.04948 " fill="#8686bf" fill-opacity="0.7"/>
   <polygon  points="152.34453,213.05599 152.34453,232.93203 111.07484,205.57498 111.07484,189.32895 " fill="#e9e9ff" fill-opacity="0.7"/>
   <polygon  points="69.916822,225.86839 111.07484,205.57498 111.07484,189.32895 69.916822,206.92963 " fill="#353564" fill-opacity="0.7"/>
   <polygon  points="108.74419,264.47551 152.34453,232.93203 111.07484,205.57498 69.916822,225.86839 " fill="#afafde" fill-opacity="0.7"/>
   <polygon  points="108.74419,240.41396 152.34453,213.05599 111.07484,189.32895 69.916822,206.92963 " fill="#4d4d9f" fill-opacity="0.7"/>
   <polygon  points="108.74419,264.47551 152.34453,232.93203 152.34453,213.05599 108.74419,240.41396 " fill="#d7d7ff" fill-opacity="0.7"/>
   <polygon  points="108.74419,240.41396 108.74419,264.47551 69.916822,225.86839 69.916822,206.92963 " fill="#8686bf" fill-opacity="0.7"/>
  </g>
 </g>
</svg>

